<svg width="67" height="112" viewBox="0 0 67 112" fill="none" xmlns="http://www.w3.org/2000/svg">
<path d="M40.4043 89.4863L40.1055 96.9805L27.6055 96.4805L27.9043 88.9863L40.4043 89.4863Z" fill="black"/>
<path fill-rule="evenodd" clip-rule="evenodd" d="M66.5098 18.4922L66 25.9746L51.8545 25.0098L37.5049 48.7773V56.1143C38.4116 55.9634 39.6013 55.6204 41.0723 54.8818C43.4213 53.7024 46.0195 51.1916 48.1943 48.6475C49.2374 47.4272 50.1063 46.2917 50.7129 45.4629C51.0152 45.0498 51.2501 44.716 51.4062 44.4902C51.4842 44.3776 51.5421 44.2912 51.5791 44.2363C51.5975 44.2091 51.6105 44.1893 51.6182 44.1777L51.626 44.167C51.6306 44.1707 51.7518 44.252 54.7549 46.2334C57.853 48.2775 57.8848 48.299 57.8848 48.2998L57.8838 48.3008L57.876 48.3125C57.8714 48.3194 57.8648 48.3288 57.8574 48.3398C57.8425 48.3622 57.822 48.3939 57.7959 48.4326C57.7436 48.51 57.6691 48.6196 57.5742 48.7568C57.3842 49.0316 57.1102 49.4195 56.7646 49.8916C56.0752 50.8337 55.0891 52.1242 53.8955 53.5205C51.5967 56.2097 48.1933 59.6982 44.4375 61.584C41.7394 62.9386 39.4123 63.5062 37.5049 63.6689V76.4727L50.0049 77.2441V70.7334H57.5049V91.2334C57.5049 98.2638 54.8111 103.835 49.9727 107.383C45.349 110.773 39.2338 111.977 32.7754 111.495C27.9301 111.553 22.4576 110.078 18.0566 106.715C13.3392 103.11 10.0049 97.4377 10.0049 89.7334C10.0049 83.286 9.88104 78.9597 9.75781 75.8174C9.63777 72.7564 9.50488 70.5804 9.50488 68.7334H17.0049C17.0049 70.3353 17.1132 72.0982 17.2383 75.2217L30.0049 76.0098V62.2529C27.183 60.8938 24.3349 58.7381 20.5615 54.8428C17.9476 52.1444 14.64 47.3455 12.1191 43.4805C10.8253 41.4967 9.68155 39.6684 8.86133 38.3369C8.45091 37.6707 8.12019 37.1274 7.8916 36.749C7.77727 36.5598 7.68779 36.4111 7.62695 36.3096C7.59675 36.2592 7.57361 36.2202 7.55762 36.1934C7.5496 36.1799 7.54337 36.1693 7.53906 36.1621C7.53691 36.1585 7.53539 36.1553 7.53418 36.1533C7.53362 36.1524 7.53257 36.152 7.53223 36.1514L13.9775 32.3164L13.9785 32.3184C13.9792 32.3196 13.9809 32.3216 13.9824 32.3242C13.9857 32.3297 13.9912 32.3382 13.998 32.3496C14.0119 32.3729 14.0326 32.4084 14.0605 32.4551C14.1169 32.5492 14.2012 32.6901 14.3105 32.8711C14.5292 33.2331 14.8484 33.7577 15.2461 34.4033C16.0426 35.6963 17.1519 37.468 18.4014 39.3838C20.9673 43.3179 23.9096 47.5195 25.9482 49.624C27.536 51.2631 28.8589 52.4735 30.0049 53.3887V48.5488L18.2217 22.7168L0 21.4746L0.509766 13.9922L66.5098 18.4922ZM17.4492 82.749C17.4823 84.7688 17.5049 87.076 17.5049 89.7334C17.5049 95.029 19.6921 98.526 22.6104 100.756C25.6534 103.081 29.6444 104.125 33.1055 103.986V103.999C38.5063 104.442 42.7467 103.38 45.5371 101.334C48.1986 99.3822 50.0049 96.203 50.0049 91.2334V84.7588L17.4492 82.749ZM34.2168 39.7119L43.4395 24.4355L26.7295 23.2969L34.2168 39.7119Z" fill="black"/>
<path d="M55.6104 4L54.8994 11.4668L12.8994 7.4668L13.6104 0L55.6104 4Z" fill="black"/>
</svg>
